PathFileType	4	(X/Y/Z)	C:/Users/opensim2020/Desktop/walking_exp_matlab/subject03_walking14_straight_02.trc	
DataRate	CameraRate	NumFrames	NumMarkers	Units	OrigDataRate	OrigDataStartFrame	OrigNumFrames	
100.00	100.00	6	47	mm	100.00	1107	168	
Frame#	Time	LFHD			RFHD			LBHD			RBHD			C7			T10			CLAV			STRN			RBAK			LSHO			LUPA			LELB			LFRM			LWRA			LWRB			LFIN			RSHO			RUPA			RELB			RFRM			RWRA			RWRB			RFIN			LASI			RASI			LPSI			RPSI			LTHI			LKNE			LTIB			LANK			LHEE			LTOE			RTHI			RKNE			RTIB			RANK			RHEE			RTOE			*39			*40			*41			*42			*43			*44			*45			*46			
		X1	Y1	Z1	X2	Y2	Z2	X3	Y3	Z3	X4	Y4	Z4	X5	Y5	Z5	X6	Y6	Z6	X7	Y7	Z7	X8	Y8	Z8	X9	Y9	Z9	X10	Y10	Z10	X11	Y11	Z11	X12	Y12	Z12	X13	Y13	Z13	X14	Y14	Z14	X15	Y15	Z15	X16	Y16	Z16	X17	Y17	Z17	X18	Y18	Z18	X19	Y19	Z19	X20	Y20	Z20	X21	Y21	Z21	X22	Y22	Z22	X23	Y23	Z23	X24	Y24	Z24	X25	Y25	Z25	X26	Y26	Z26	X27	Y27	Z27	X28	Y28	Z28	X29	Y29	Z29	X30	Y30	Z30	X31	Y31	Z31	X32	Y32	Z32	X33	Y33	Z33	X34	Y34	Z34	X35	Y35	Z35	X36	Y36	Z36	X37	Y37	Z37	X38	Y38	Z38	X39	Y39	Z39	X40	Y40	Z40	X41	Y41	Z41	X42	Y42	Z42	X43	Y43	Z43	X44	Y44	Z44	X45	Y45	Z45	X46	Y46	Z46	X47	Y47	Z47	

64	0.630	-887.91309	342.36417	1614.98572	-1019.90002	352.95078	1627.40845	-887.43677	463.32318	1554.37134	-1017.68304	468.69968	1566.51025	-947.02319	479.75040	1401.73572	-949.29395	501.59668	1090.62061	-958.33643	351.32513	1335.96631	-959.81213	300.68280	1171.25964	-1044.33069	527.81763	1226.54651	-797.50916	389.04126	1368.70520	-724.81970	417.55487	1171.99463	-712.09070	432.68213	1049.79980	-706.76923	438.07776	919.29565	-731.12872	453.16516	798.57642	-678.03284	469.78128	812.16333	-688.86096	494.84875	727.22760	-1112.37952	411.91473	1359.81152	-1195.84546	359.09421	1152.89209	-1214.10229	303.58896	1056.88379	-1215.95789	217.07278	951.98376	-1181.25574	137.42487	894.73340	-1219.83032	162.55402	867.77759	-1212.66052	99.58295	829.71912	-851.69287	322.25626	939.40277	-1085.81335	354.57077	923.10193	-878.16077	491.04630	953.66992	-1026.41199	507.79651	948.85339	-795.71240	324.48163	639.61371	-838.76904	280.70068	469.40143	-828.51581	326.36584	273.16241	-867.15125	357.40137	65.98700	-897.81763	403.32983	31.76339	-906.81128	210.25688	30.39314	-1127.22095	398.28909	620.65912	-1113.29443	361.60577	443.26376	-1104.84131	514.87085	334.44507	-1052.99341	691.02118	217.72862	-993.52393	731.69794	237.27971	-1047.19202	665.39856	75.81792	-928.37354	435.23257	1667.90894																					 
65	0.640	-888.16046	329.49426	1616.57178	-1020.10339	340.12430	1628.84009	-887.45068	450.56546	1556.31189	-1017.66913	456.05762	1568.33667	-946.63971	467.41776	1403.36084	-948.25012	489.11679	1092.20972	-958.56079	339.09564	1337.64624	-959.90912	288.25967	1173.01038	-1042.41699	516.01794	1227.54565	-797.48322	375.75510	1370.42065	-724.61578	401.65866	1173.33899	-711.84833	415.27066	1050.98438	-706.71002	419.00165	920.43341	-730.99695	432.82797	799.71570	-677.82550	449.11084	812.83875	-688.01270	470.93900	727.38080	-1112.57739	400.86334	1361.01123	-1195.10242	349.62402	1152.89319	-1212.93335	294.77451	1056.22620	-1214.79822	210.03360	949.73279	-1179.97388	131.52560	890.79236	-1218.82947	157.04544	864.57666	-1211.02246	95.14970	824.47333	-850.91559	309.56351	940.64575	-1084.96997	341.85989	924.94482	-877.50031	478.44495	955.36609	-1025.70081	495.18292	950.53723	-795.59027	314.99225	640.21936	-838.82495	275.38419	468.66968	-828.35669	323.81635	272.99408	-866.93890	357.37946	66.12546	-897.95203	403.26050	32.00163	-906.86096	210.19109	30.27317	-1126.03784	379.68607	622.78607	-1112.65002	338.06033	446.74902	-1102.88916	489.99927	336.96863	-1050.02551	664.16705	217.32791	-990.41937	705.84460	234.89137	-1045.11523	633.22742	76.40697	-928.58746	422.25476	1669.79565																					 
66	0.650	-888.40576	316.63373	1618.01465	-1020.37823	327.37341	1630.25916	-887.51770	437.83206	1558.24792	-1017.76093	443.49875	1570.16553	-946.26135	455.09213	1404.98181	-947.18903	476.62985	1093.86267	-958.82721	327.01837	1339.18811	-959.98553	275.94519	1174.79407	-1040.85608	504.26511	1228.77319	-797.48639	362.52341	1372.22009	-724.52148	385.72449	1174.80408	-711.69385	397.54041	1052.24866	-706.82593	399.50479	921.72113	-731.10321	412.00223	800.91882	-677.81537	427.67401	813.57458	-687.21124	446.22983	727.83331	-1112.79102	389.93347	1362.28711	-1194.30298	340.38943	1152.96741	-1211.74866	286.32352	1055.55139	-1213.65735	203.60445	947.38306	-1178.89038	126.19360	886.74170	-1217.87573	152.26160	861.19690	-1209.61121	91.61337	819.08453	-849.94629	297.17477	941.98035	-1083.63965	329.06812	927.54523	-876.93805	465.96796	956.91272	-1025.16626	482.56973	952.51300	-795.56952	305.65305	640.62958	-838.84259	270.43924	468.05289	-828.23389	321.71982	273.01221	-867.06067	357.04236	66.36005	-897.85358	403.26242	32.51683	-906.94519	210.13918	30.19104	-1124.82898	360.94165	625.10632	-1111.87744	314.84549	450.42291	-1101.25244	464.91806	338.33664	-1047.14429	636.53363	215.03670	-987.41077	679.14453	230.82468	-1043.09509	599.53497	75.97746	-928.70374	409.22284	1671.60876																					 
67	0.660	-888.79889	303.80597	1619.65063	-1020.78076	314.69913	1631.66382	-887.71899	425.24368	1560.19348	-1017.96088	431.01038	1571.95984	-945.92072	442.92548	1406.63416	-946.18109	464.09323	1095.42139	-959.04492	314.95135	1340.91943	-960.00549	263.69000	1176.64001	-1039.67505	492.46570	1230.10767	-797.59338	349.44437	1374.11011	-724.76825	369.62314	1176.42664	-711.69977	379.65909	1053.71570	-707.16650	379.60516	923.12848	-731.45660	391.27924	802.34344	-677.99878	405.73120	814.52087	-686.67566	420.72333	728.55347	-1112.88696	378.80313	1363.49878	-1193.54993	331.27695	1153.03442	-1210.59180	278.36722	1054.86804	-1212.51648	197.82030	944.97577	-1177.56030	121.78507	882.34949	-1216.98865	148.30280	857.73279	-1208.36389	88.86372	813.65259	-848.78546	284.84064	943.31415	-1082.42590	315.93997	929.91016	-876.49799	453.63110	958.42694	-1024.75000	469.90833	954.74750	-795.58240	296.89938	640.89941	-838.88068	266.06815	467.50168	-828.19409	320.04007	273.10052	-867.11115	356.92789	66.61481	-897.94110	403.24225	32.94847	-906.98145	210.10695	30.10158	-1123.70532	342.32062	627.61304	-1110.99475	292.26993	454.21957	-1099.56348	439.84207	338.72363	-1044.45630	608.14063	211.09607	-984.59827	651.88232	225.01862	-1040.35352	564.57666	74.25965	-929.28662	396.29395	1673.46057																					 
68	0.670	-889.27728	291.13303	1621.08887	-1021.20422	302.06195	1632.99707	-887.93536	412.61407	1562.06128	-1018.15851	418.54114	1573.58264	-945.56183	430.78909	1408.21887	-945.26135	451.72668	1097.00671	-959.29999	302.92172	1342.59424	-959.98846	251.44815	1178.47620	-1038.81067	480.69818	1231.56372	-797.74359	336.45139	1376.03784	-724.76361	353.73569	1178.12952	-711.77393	361.86887	1055.28406	-707.57751	359.35455	924.69800	-732.47388	369.82516	803.47614	-678.29077	383.07150	815.67133	-686.29022	394.53860	729.60443	-1112.92798	367.72311	1364.55273	-1192.66748	322.35092	1153.16223	-1209.45422	270.79962	1054.14746	-1211.45862	192.60428	942.46313	-1176.65369	117.80629	877.99249	-1216.09375	145.05838	854.11652	-1207.34875	86.93686	808.17291	-847.60553	272.83145	944.67426	-1081.34937	303.07721	932.43158	-876.09338	441.34402	959.80304	-1024.37756	457.19540	957.01172	-795.72107	288.62231	640.98285	-838.79919	262.11066	466.98792	-828.19818	318.33344	273.29749	-867.18250	356.78806	66.98837	-898.03619	403.25934	33.49238	-907.04706	210.07904	30.07012	-1122.51062	323.97888	630.17114	-1110.09119	270.30652	458.07361	-1097.74341	414.58420	338.19498	-1041.87817	579.01501	205.79465	-982.01166	623.76941	217.38129	-1037.44971	528.12036	71.62229	-929.50891	383.31808	1675.00659																					 
69	0.680	-889.76770	278.46866	1622.53149	-1021.73029	289.53098	1634.19873	-888.26288	400.14972	1563.79724	-1018.47968	406.08459	1575.11450	-945.27588	418.73856	1409.75513	-944.39038	439.44159	1098.47717	-959.52441	290.95212	1344.18640	-959.92554	239.21007	1180.16626	-1038.16309	468.97305	1233.03455	-797.92725	323.51245	1377.95349	-724.76636	337.92978	1179.90552	-711.82196	343.51453	1056.90576	-708.19128	338.71030	926.46631	-733.15149	346.94363	805.33356	-678.78918	359.86804	817.01483	-686.12347	367.84055	731.00757	-1112.83667	356.59421	1365.92200	-1191.80530	313.45349	1153.25720	-1208.26953	263.57791	1053.31763	-1210.42102	187.93347	939.83112	-1175.92224	114.47818	873.56439	-1215.23877	142.50609	850.31586	-1206.41455	85.58551	802.63983	-846.36652	261.02722	945.74384	-1080.24036	290.11539	934.95673	-875.78271	429.16837	961.13391	-1024.11450	444.44739	959.16699	-795.81805	281.04263	640.92834	-838.74152	258.70261	466.57278	-828.34003	316.62115	273.50180	-867.29346	356.68365	67.39391	-899.04572	402.61978	33.66735	-907.07025	209.99550	29.99783	-1121.95410	305.98260	632.87555	-1108.79541	249.15492	461.86133	-1095.91345	389.18546	337.00708	-1039.41321	548.97882	199.06100	-979.90442	594.91156	208.26619	-1034.41785	490.26099	68.49734	-930.36139	370.66248	1676.70605																					 
